<?xml version="1.0" encoding="UTF-8"?>
<svg id="Layer_1" xmlns="http://www.w3.org/2000/svg" version="1.1" viewBox="0 0 256 256">
  <!-- Generator: Adobe Illustrator 30.1.0, SVG Export Plug-In . SVG Version: 2.1.1 Build 136)  -->
  <defs>
    <style>
      .st0 {
        fill: none;
        stroke: #231f20;
        stroke-miterlimit: 10;
        stroke-width: 4px;
      }

      .st1 {
        fill: #231f20;
      }

      .st2 {
        fill: #00aeef;
      }
    </style>
  </defs>
  <g>
    <path class="st2" d="M66.01,82.02l-12.42,37.63h-15.98L78.26,0h18.64l40.83,119.65h-16.51l-12.78-37.63h-42.43ZM105.24,69.94l-11.72-34.44c-2.66-7.81-4.44-14.91-6.21-21.83h-.36c-1.77,7.1-3.72,14.38-6.03,21.66l-11.72,34.61h36.04Z"/>
    <path class="st1" d="M37.6,246.94l76.1-97.1v-.53H44.12v-12.96h92.59v9.41l-75.7,96.74v.53h76.72v12.96H37.6v-9.06Z"/>
  </g>
  <g>
    <line class="st0" x1="192.04" y1="0" x2="192.04" y2="227.3"/>
    <polygon class="st1" points="172.09 221.46 192.04 256 211.98 221.46 172.09 221.46"/>
  </g>
</svg>