<?xml version="1.0" encoding="UTF-8"?>
<svg id="Layer_1" xmlns="http://www.w3.org/2000/svg" version="1.1" viewBox="0 0 256 256">
  <!-- Generator: Adobe Illustrator 30.1.0, SVG Export Plug-In . SVG Version: 2.1.1 Build 136)  -->
  <defs>
    <style>
      .st0 {
        fill: #00aeef;
      }
    </style>
  </defs>
  <path class="st0" d="M253.12,242.22l-107.16-107.16c12.11-14.31,19.44-32.79,19.44-52.96C165.4,36.83,128.57,0,83.3,0S1.19,36.83,1.19,82.1s36.83,82.1,82.1,82.1c20.96,0,40.1-7.9,54.62-20.87l107.05,107.05c2.25,2.25,5.9,2.25,8.15,0s2.25-5.9,0-8.15ZM83.3,152.67c-38.91,0-70.57-31.66-70.57-70.57S44.38,11.53,83.3,11.53s70.57,31.66,70.57,70.57-31.66,70.57-70.57,70.57Z"/>
</svg>